<svg xmlns="http://www.w3.org/2000/svg" width="48" height="48" viewBox="0 0 24.02 24.02"><path fill="#fff" d="M12.01 24.02a12 12 0 1 1 12-12 12 12 0 0 1-12 12zm0-22.61a10.6 10.6 0 1 0 10.6 10.6 10.61 10.61 0 0 0-10.6-10.6z"/><path fill="#fff" d="M7.39 9.81a.57.57 0 0 0-.81 0 .56.56 0 0 0-.16.41.57.57 0 0 0 .18.4c1.39 1.35 4.69 5.33 5.37 8.39a.57.57 0 0 0 .54.48h.13a.58.58 0 0 0 .43-.69c-.72-3.31-4.2-7.56-5.68-8.99z"/><path fill="#fff" d="M18.39 6.07a.58.58 0 0 0-.19-.39.57.57 0 0 0-.41-.14 9.3 9.3 0 0 0-7 4.53 8.74 8.74 0 0 0-5-2.2.54.54 0 0 0-.41.11.55.55 0 0 0-.21.41c-.32 3.74.38 6.82 2 8.67a5.42 5.42 0 0 0 3.9 1.9.56.56 0 0 0 .57-.54.57.57 0 0 0-.14-.41.55.55 0 0 0-.39-.2 4.25 4.25 0 0 1-3.07-1.5c-1.28-1.49-1.9-4.12-1.73-7.24a8.19 8.19 0 0 1 4.28 2.3l.08.08c.13.13.26.27.38.41a8.35 8.35 0 0 1 1 1.46l.07.14a6.2 6.2 0 0 1 .69 3.23.56.56 0 0 0 .53.61.59.59 0 0 0 .61-.53v-.49c3.24-.97 4.9-4.79 4.44-10.21zm-4.56 9a7.35 7.35 0 0 0-.63-2 27.31 27.31 0 0 1 3.77-4.83.573.573 0 0 0-.8-.82A28.16 28.16 0 0 0 12.51 12a11.21 11.21 0 0 0-.69-.89 2.09 2.09 0 0 0-.2-.22 8.31 8.31 0 0 1 5.63-4.14c.14 2.01.04 7.12-3.42 8.35z"/></svg>