<svg width="48" height="48" xmlns="http://www.w3.org/2000/svg" viewBox="0 0 24.02 24.02"><path d="M143.5,84.53a12,12,0,1,1,12-12A12,12,0,0,1,143.5,84.53Zm0-22.61a10.6,10.6,0,1,0,10.6,10.6A10.61,10.61,0,0,0,143.5,61.92Z" transform="translate(-131.49 -60.51)" fill="#fff"/><path d="M138.88,70.32a.57.57,0,0,0-.81,0,.56.56,0,0,0-.16.41.57.57,0,0,0,.18.4c1.39,1.35,4.69,5.33,5.37,8.39A.57.57,0,0,0,144,80h.13a.58.58,0,0,0,.43-.69C143.84,76,140.36,71.75,138.88,70.32Z" transform="translate(-131.49 -60.51)" fill="#fff"/><path d="M149.88,66.58a.58.58,0,0,0-.19-.39.57.57,0,0,0-.41-.14,9.3,9.3,0,0,0-7,4.53,8.74,8.74,0,0,0-5-2.2.54.54,0,0,0-.41.11.55.55,0,0,0-.21.41c-.32,3.74.38,6.82,2,8.67a5.42,5.42,0,0,0,3.9,1.9.56.56,0,0,0,.57-.54.57.57,0,0,0-.14-.41.55.55,0,0,0-.39-.2,4.25,4.25,0,0,1-3.07-1.5c-1.28-1.49-1.9-4.12-1.73-7.24a8.19,8.19,0,0,1,4.28,2.3l.08.08c.13.13.26.27.38.41a8.35,8.35,0,0,1,1,1.46h0l.07.14a6.2,6.2,0,0,1,.69,3.23.56.56,0,0,0,.53.61.59.59,0,0,0,.61-.53c0-.16,0-.32,0-.49C148.68,75.82,150.34,72,149.88,66.58Zm-4.56,9a7.35,7.35,0,0,0-.63-2,27.31,27.31,0,0,1,3.77-4.83.57.57,0,0,0-.8-.82A28.16,28.16,0,0,0,144,72.51a11.21,11.21,0,0,0-.69-.89,2.09,2.09,0,0,0-.2-.22,8.31,8.31,0,0,1,5.63-4.14C148.88,69.27,148.78,74.38,145.32,75.61Z" transform="translate(-131.49 -60.51)" fill="#fff"/></svg>