<svg xmlns="http://www.w3.org/2000/svg" width="48" height="48" viewBox="0 0 24.02 24.02"><path fill="#fff" d="M17.54 14.66a4 4 0 0 1-.88 1.73 3.83 3.83 0 0 1-1.55 1 5.73 5.73 0 0 1-2 .34 5.63 5.63 0 0 1-2.86-.68 4.57 4.57 0 0 1-1.82-2 5.73 5.73 0 0 1-.46-1.36H6.51v-1.06h1.31V12a2.75 2.75 0 0 1 0-.4h-1.3v-1.1h1.43a5.45 5.45 0 0 1 .51-1.6 4.62 4.62 0 0 1 1.84-2 5.51 5.51 0 0 1 2.8-.68 6.21 6.21 0 0 1 2 .3 4.15 4.15 0 0 1 1.53.91 3.12 3.12 0 0 1 .88 1.43l-2.13 1a1.77 1.77 0 0 0-.76-1.2 2.71 2.71 0 0 0-1.43-.39 2.5 2.5 0 0 0-1.51.44 2.45 2.45 0 0 0-.9 1.26c-.06.17-.11.34-.16.53h4l-.38 1.1h-3.79v1.03h3.48l-.37 1.13h-2.93a3.83 3.83 0 0 0 .44 1 2.3 2.3 0 0 0 2.09 1 2.25 2.25 0 0 0 1.41-.42 2.15 2.15 0 0 0 .74-1.32z"/><path fill="#fff" d="M12.01 24.02a12 12 0 1 1 12-12 12 12 0 0 1-12 12zm0-22.6A10.59 10.59 0 1 0 22.6 12.01 10.6 10.6 0 0 0 12.01 1.42z"/></svg>