<svg fill="none" height="16" stroke="#fff" stroke-linecap="round" stroke-linejoin="round" stroke-width="2.5" viewBox="0 0 24 24" width="16" xmlns="http://www.w3.org/2000/svg"><path d="m9 19c-5 1.5-5-2.5-7-3m14 6v-3.87a3.37 3.37 0 0 0 -.94-2.61c3.14-.35 6.44-1.54 6.44-7a5.44 5.44 0 0 0 -1.5-3.75 5.07 5.07 0 0 0 -.09-3.77s-1.18-.35-3.91 1.48a13.38 13.38 0 0 0 -7 0c-2.73-1.83-3.91-1.48-3.91-1.48a5.07 5.07 0 0 0 -.09 3.77 5.44 5.44 0 0 0 -1.5 3.78c0 5.42 3.3 6.61 6.44 7a3.37 3.37 0 0 0 -.94 2.58v3.87"/></svg>