<svg xmlns="http://www.w3.org/2000/svg" viewBox="0 0 226.46 234.66"><linearGradient id="a" x1="177.53" x2="177.53" y1="-101.26" y2="-22.92" gradientTransform="scale(1 -1) rotate(23 254.564 -140.062)" gradientUnits="userSpaceOnUse"><stop offset="0" stop-color="#fff" stop-opacity=".95"/><stop offset="1" stop-color="#fff" stop-opacity=".5"/></linearGradient><path fill="url(#a)" fill-rule="evenodd" d="M74.72 91.53a68.93 68.93 0 0 0 91.43 37c37.67-17.39 51.38-62.18 36.66-90.87a12.76 12.76 0 0 0-16.63-5.54 12.13 12.13 0 0 0-5.73 16.16c8.42 17.66 1.05 46.7-24.22 58.12-20.1 9-47.11 1.58-58.4-22.86a12 12 0 0 1-6.15 15.14 12.51 12.51 0 0 1-16.42-6c-.19-.36-.36-.75-.54-1.15z"/><path fill="#fff" d="M127.69 70.05A12.44 12.44 0 1 1 144 76.71a12.45 12.45 0 0 1-16.31-6.66zM163 55.23a12.48 12.48 0 0 1 6.76-16.3l16.84-7a12.42 12.42 0 1 1 9.6 22.9l-16.84 7.06A12.48 12.48 0 0 1 163 55.23z"/><path fill="#fff" fill-rule="evenodd" d="M127.88 7A12.13 12.13 0 0 1 122 23.11c-26.18 12.27-33.7 40-24.6 59.47a12 12 0 0 1-5.76 16.08 12.51 12.51 0 0 1-16.42-6C60.43 60.94 74 17.69 111.75 1.15A12.14 12.14 0 0 1 127.88 7z"/><g fill="none" stroke="#fff" stroke-linecap="round" stroke-linejoin="round" stroke-width="11"><ellipse cx="83.85" cy="220.48" rx="9.79" ry="8.68"/><ellipse cx="191.58" cy="220.48" rx="9.79" ry="8.68"/><path d="M5.5 46.93h39.18l26.24 116.19c1.85 8.25 10.1 14.13 19.59 14h95.2c9.48.16 17.73-5.72 19.58-14L221 90.31H54.47"/></g></svg>