<svg xmlns="http://www.w3.org/2000/svg" viewBox="0 0 500 500"><path fill="#6466f1" d="M128.67 346.25c31.56 18.34 74 21.3 109.32 12.38 17.74-4.49 30.92-13.86 46.21-22.78 21.42-12.51 37.44-11.19 61.43-12.61 69.83-4.12 89.8-71.3 82.29-117.83-9.12-56.58-60.8-101.19-122.64-105.92-41.63-3.18-80.09 2.63-112.68 20.42-25.44 13.89-28.33 35.8-32.48 61.18-3.17 19.37-5.19 41-17.11 57.76-10.91 15.33-26.76 6.48-40.64 17-35.37 26.68-.28 74.95 26.3 90.4z"/><path fill="#fff" d="M128.67 346.25c31.56 18.34 74 21.3 109.32 12.38 17.74-4.49 30.92-13.86 46.21-22.78 21.42-12.51 37.44-11.19 61.43-12.61 69.83-4.12 89.8-71.3 82.29-117.83-9.12-56.58-60.8-101.19-122.64-105.92-41.63-3.18-80.09 2.63-112.68 20.42-25.44 13.89-28.33 35.8-32.48 61.18-3.17 19.37-5.19 41-17.11 57.76-10.91 15.33-26.76 6.48-40.64 17-35.37 26.68-.28 74.95 26.3 90.4z" opacity=".9"/><ellipse cx="250" cy="416.24" fill="#f5f5f5" rx="193.89" ry="11.32"/><g fill="#263238"><path d="M166.53 113.94l-.63-.78a166.31 166.31 0 0 1 13.7-10l.55.84a164.35 164.35 0 0 0-13.62 9.94zm-7.38 6.31l-.68-.74c1.34-1.21 2.72-2.42 4.09-3.59l.65.77a172.19 172.19 0 0 0-4.06 3.56z"/><ellipse cx="216.41" cy="181.2" rx="115.24" ry="81.19" transform="rotate(-41.22 216.436 181.221)"/></g><ellipse cx="216.41" cy="181.2" fill="#fff" rx="99.97" ry="70.43" transform="rotate(-41.22 216.436 181.221)"/><path fill="#6466f1" d="M237.15 103.89c-43.29 3.51-87.67 41-99.13 83.66l156.77-12.69c11.46-42.7-14.35-74.47-57.64-70.97z"/><g fill="#fff"><path d="M138 187.55l78.39-6.35-40.74-50.2c-17.94 15.16-31.9 35.2-37.65 56.55z" opacity=".7"/><path d="M237.15 103.89c-21.64 1.76-43.56 12-61.5 27.13l40.76 50.18z" opacity=".4"/><path d="M237.15 103.89l-20.74 77.31 70.09-59.15c-10.43-12.84-27.7-19.91-49.35-18.16z" opacity=".1"/><ellipse cx="216.41" cy="181.2" rx="40.79" ry="28.73" transform="rotate(-41.22 216.436 181.221)"/></g><ellipse cx="216.41" cy="181.2" fill="#263238" rx="23.8" ry="16.77" transform="rotate(-41.22 216.436 181.221)"/><path fill="#263238" d="M275.08 139.85a236.29 236.29 0 0 0-52.63 27.9l7.37 13.2a257.66 257.66 0 0 0 45.26-41.1z"/><path fill="#6466f1" d="M147 217.06a1.51 1.51 0 0 1-1.55-1.84 2.73 2.73 0 0 1 2.36-2.16l86.19-6.83a1.51 1.51 0 0 1 1.7 1.83 2.7 2.7 0 0 1-2.35 2.15l-86.12 6.84zm74.55 8.2a1.5 1.5 0 0 1-1.55-1.84 2.7 2.7 0 0 1 2.36-2.15l28-2.23a1.51 1.51 0 0 1 1.71 1.83 2.72 2.72 0 0 1-2.36 2.16l-28 2.22zm-142.4 35.82a1.51 1.51 0 0 1-1.55-1.84 2.72 2.72 0 0 1 2.4-2.15l28-2.23a1.52 1.52 0 0 1 1.71 1.83 2.72 2.72 0 0 1-2.35 2.16l-28 2.22zm24.94-16.37a1.5 1.5 0 0 1-1.54-1.84 2.71 2.71 0 0 1 2.35-2.15l84-6.67a1.52 1.52 0 0 1 1.71 1.83 2.73 2.73 0 0 1-2.36 2.16l-84 6.66z"/><path fill="#ff8b7b" d="M284.39 334.51l3.56 7.19 17.61-6.33-3.56-7.19zm-85.62 59.13l5.35 5.99 13.6-15.45-6.59-4.58z"/><path fill="#263238" d="M205.34 399l-3.64-9.09a.67.67 0 0 0-.75-.41l-7.11 1.5a1.22 1.22 0 0 0-.86 1.67c1.22 2.9 2.24 5 3.71 8.64.91 2.27 3.41 9.2 4.67 12.33s4.45 2.17 4.22.76c-1.07-6.29-1.1-11.38-.21-13.95a2 2 0 0 0-.03-1.45zm83.42-57.76l-3.89-7.86a.71.71 0 0 0-.79-.37l-7.1 1.75a1.16 1.16 0 0 0-.77 1.67c1.45 2.81 3.64 6.82 5.41 10.38 2.06 4.17 2.34 4.3 4.76 9.18 1.46 2.95 4.85 2.3 4.51.93-1.56-6.24-2.43-7.32-1.83-13.67a3.73 3.73 0 0 0-.3-2.01z"/><path fill="#ff8b7b" d="M358 205.24c-.37 2.6-.77 5.4-1.08 8.11s-.62 5.47-.85 8.2a116.24 116.24 0 0 0-.48 16.06c0 .65.06 1.3.14 1.91l.18 1.78a2.51 2.51 0 0 0 1.71 2.39 10.94 10.94 0 0 0 2.85.86 34 34 0 0 0 7.44.28c1.31-.09 2.65-.19 4-.35s2.72-.37 4-.56l1.94 5.71a44 44 0 0 1-4.24 1.73 43 43 0 0 1-4.35 1.36 39.66 39.66 0 0 1-4.59.93 28.36 28.36 0 0 1-4.94.32 20.11 20.11 0 0 1-5.48-.83 13.71 13.71 0 0 1-5.74-3.45 13.05 13.05 0 0 1-3.32-6.27c-.07-.31-.1-.48-.13-.68l-.1-.58-.21-1.18c-.15-.78-.25-1.55-.34-2.32a103.34 103.34 0 0 1-.38-18c.19-2.94.4-5.86.76-8.76s.71-5.75 1.27-8.76z"/><path fill="#6466f1" d="M345.19 198c-5.26 5.59-3.14 19.7-3.14 19.7l14.78 2.3s3.43-8 2.14-16.25c-1.58-10.02-8.03-11.9-13.78-5.75z"/><path d="M350 204.19c-2.44-3.14-5-4.26-6.36-4-3.27 6.41-1.61 17.47-1.61 17.47l10.47 1.7c1.2-3.25 1.35-10.26-2.5-15.17z" opacity=".2"/><path fill="#ff8b7b" d="M373.94 244.79l8.57-5.62 1.9 8.7s-5.33 5.4-9.77 1.59z"/><path fill="#ff8b7b" d="M387.78 237.29l.99 7.52-4.36 3.06-1.91-8.7z"/><path d="M305.55 335.38l-9.07 3.26-3.56-7.2 9.07-3.26zm-94.42 44.22l6.59 4.58-6.38 7.24-6.59-4.59z" opacity=".2"/><path fill="#6466f1" d="M314.74 178.71c-6.08 31.11-22.27 59.18-24.53 65.38 5.8 2.43 27.69 11.55 39.62 16.52 22.25-33.11 25.66-57.07 26.17-62.87a2.38 2.38 0 0 0-1-2.15c-.95-.69-2.47-1.77-4.32-3-1-.64-2.07-1.31-3.22-2-.63-.37-1.28-.73-1.94-1.08a159 159 0 0 0-16.85-7c-1.08-.39-2.19-.77-3.28-1.11s-2-.61-2.95-.87c-4.26-1.14-7.7-1.82-7.7-1.82z"/><path fill="#fff" d="M338.56 223.07l2.19.56a12.53 12.53 0 0 1-5.13 3 12.4 12.4 0 0 1-6.76.1 10 10 0 0 1-5.16-2.82 6.52 6.52 0 0 1-1.62-4.9 14.78 14.78 0 0 1 1.74-6 20.92 20.92 0 0 1 4.62-6 15 15 0 0 1 6-3.44 11.89 11.89 0 0 1 6.18-.1 7.43 7.43 0 0 1 4 2.34A6.06 6.06 0 0 1 346 210a11.5 11.5 0 0 1-1.39 5 14.46 14.46 0 0 1-4.47 5.16c-2.43 1.75-4.7 2.35-6.8 1.82a1.66 1.66 0 0 1-1.11-.67 1.54 1.54 0 0 1 0-1.17 4.79 4.79 0 0 1-3.5.67 2.71 2.71 0 0 1-2.12-2.1 5.67 5.67 0 0 1 .77-3.95 14.37 14.37 0 0 1 4-4.83q3.1-2.43 5.67-1.79a2.23 2.23 0 0 1 1.86 2.32l.94-1.27 2.71.69-6 8.25a10 10 0 0 0-.69 1 .88.88 0 0 0-.12.49.28.28 0 0 0 .21.22 2.9 2.9 0 0 0 1.63-.38 9.86 9.86 0 0 0 3-2 11.36 11.36 0 0 0 2.3-3 7 7 0 0 0 .73-5.43q-.81-2.46-4.08-3.28a9.62 9.62 0 0 0-5.4.14 12.36 12.36 0 0 0-4.85 3 18.56 18.56 0 0 0-3.58 4.79 10.6 10.6 0 0 0-1.29 4.91 5.21 5.21 0 0 0 1.5 3.82 8.65 8.65 0 0 0 4 2.1 11.37 11.37 0 0 0 4.64.26 9.84 9.84 0 0 0 4-1.7zm-8.56-7.75a4.13 4.13 0 0 0-.63 2.38 1.21 1.21 0 0 0 .94 1.06 2.32 2.32 0 0 0 1.27-.06 4.55 4.55 0 0 0 1.16-.57 9.89 9.89 0 0 0 2.05-1.91 13.44 13.44 0 0 0 1.75-2.53 3.65 3.65 0 0 0 .53-2.22 1.25 1.25 0 0 0-1-1.08 2.89 2.89 0 0 0-2.05.39 7.93 7.93 0 0 0-2.3 2 14.65 14.65 0 0 0-1.72 2.54z"/><path fill="#ff8b7b" d="M338.29 164.45c-1.19 5.86-4.27 16.24-9.57 18.27 1.72 4.16 4.16 9.15 10.51 12.06s7.06-2 6.33-5c-5.44-4-3.41-8.38-.61-12.15z"/><path d="M341 169.81l3.94 7.77a18.26 18.26 0 0 0-1.76 2.78c-2.17-1.3-4.29-5.16-3.53-7.68a8.83 8.83 0 0 1 1.35-2.87z" opacity=".2"/><path fill="#263238" d="M354.28 164.67c6.27.46 11.82-15.18 2.67-17-6.17-1.23-6.11 2.46-6.76 6.5s.12 10.21 4.09 10.5z"/><path fill="#ff8b7b" d="M339 156.75c-1.61 7.8-2.95 12.28-.15 17.28 4.22 7.51 14.64 6.57 18.56-.59 3.52-6.45 5.57-18.12-1.11-23.22a10.87 10.87 0 0 0-17.3 6.53z"/><path fill="#263238" d="M337.67 162.33c6.27.46 10.47-13.84 1.32-15.67-6.17-1.23-6.69 2.38-6.59 6.24.1 4.1 1.29 9.1 5.27 9.43z"/><path fill="#263238" d="M342.73 151.39c4.23 2.05 24.62 6.44 23.45-2.33s-12.06-12.84-12.06-12.84 6.34 6.95 1.11 5.28-6.73-2.89-13-4c0 0 6.16 5.11-1 3.67a17 17 0 0 0-12.16 1.94 12.09 12.09 0 0 1 5.28 11.27c-.49 7.71 8.38-2.99 8.38-2.99z"/><path fill="#ff8b7b" d="M334 162.7a7 7 0 0 0 2.72 4.55c1.92 1.41 3.67-.21 3.8-2.55.11-2.11-.75-5.39-3-5.86s-3.82 1.6-3.52 3.86z"/><path fill="#263238" d="M303.92 249.81l-8.34 26.86 42.93 27c-7.41 12.36-45.06 24.66-45.06 24.66l6 12.18s52.43-4 63.06-27.18c10.23-22.26-32.7-52.72-32.7-52.72z"/><path d="M309.49 285.42l-7.49-4.69 9.22-13.4s.26 10.74-1.73 18.09z" opacity=".2"/><path d="M309.49 285.42l-7.49-4.69 9.22-13.4s.26 10.74-1.73 18.09z" opacity=".2"/><path fill="#263238" d="M320.53 256.74s-34.62 57.58-48.91 76.26c-15.65 20.46-56.17 59-56.17 59l-12.07-8.4s35-38.58 48.19-59.93c15.05-24.32 38.64-79.6 38.64-79.6z"/><path fill="#6466f1" d="M216.71 393.28l-14.21-9.88 2.95-4.25 16.08 10.77zm83.24-51.1l-7.19-14.51 4.69-2.32 8.28 16.1z"/><path fill="#263238" d="M350.07 162.06c-.17.62 0 1.22.43 1.33s.88-.3 1.05-.93 0-1.22-.44-1.33-.87.31-1.04.93zm7.06 1.94c-.17.63 0 1.22.43 1.33s.88-.3 1.05-.93 0-1.22-.43-1.33-.88.29-1.05.93z"/><path fill="#ff5652" d="M354.8 163.68a23.26 23.26 0 0 0 1.53 6.16 3.74 3.74 0 0 1-3.14-.26z"/><path fill="#263238" d="M350.11 170.54a5.38 5.38 0 0 1-3-3 .2.2 0 0 1 .13-.24.2.2 0 0 1 .24.12 5.1 5.1 0 0 0 3.5 3 .18.18 0 0 1 .14.23.19.19 0 0 1-.24.13 5.63 5.63 0 0 1-.77-.24zm-1.6-11.35a.44.44 0 0 1-.15-.12.37.37 0 0 1 .07-.53 3.79 3.79 0 0 1 3.4-.71.39.39 0 0 1 .23.49.38.38 0 0 1-.48.23 3 3 0 0 0-2.69.59.4.4 0 0 1-.38.05zm12.32 3.19a.37.37 0 0 1-.22-.28 3 3 0 0 0-1.62-2.22.38.38 0 1 1 .29-.7 3.76 3.76 0 0 1 2.07 2.78.37.37 0 0 1-.3.44.33.33 0 0 1-.22-.02z"/><g fill="#6466f1"><path d="M205.05 402.07a9.22 9.22 0 0 1-.52-2.07.2.2 0 0 1 .09-.2.17.17 0 0 1 .2 0c.28.19 2.69 1.94 2.61 2.95a.66.66 0 0 1-.37.53 1.11 1.11 0 0 1-1.07 0 2.33 2.33 0 0 1-.94-1.21zm-.05-1.67c.25 1.38.69 2.33 1.19 2.59a.72.72 0 0 0 .72-.05c.14-.06.16-.14.16-.2.03-.52-1.15-1.61-2.07-2.34z"/><path d="M204.54 400a.2.2 0 0 1 .12-.26c.09 0 2.27-.8 3.32-.25a1 1 0 0 1 .52.65.65.65 0 0 1-.23.77c-.75.52-3-.25-3.68-.83a.22.22 0 0 1-.05-.08zm3.57.17a.66.66 0 0 0-.31-.33 4.37 4.37 0 0 0-2.65.15c.88.51 2.47.91 2.92.6 0 0 .13-.09.07-.33zm80.01-57.73a.18.18 0 0 1 .08-.18.2.2 0 0 1 .22 0c.33.25 3.22 2.41 3.17 3.53a.6.6 0 0 1-.31.5 1 1 0 0 1-1 .09c-1.09-.44-1.83-2.64-2.17-3.91zm3.09 3.25c-.08-.63-1.46-1.9-2.57-2.78.53 1.72 1.18 2.87 1.79 3.12a.69.69 0 0 0 .65-.06.21.21 0 0 0 .13-.2z"/><path d="M288.12 342.44v-.05a.17.17 0 0 1 .12-.15c.08 0 2.12-.8 3.32-.25a1.36 1.36 0 0 1 .76.8c.18.49 0 .74-.16.87-.75.53-3.16-.42-4-1.1a.17.17 0 0 1-.04-.12zm3.89.67a.59.59 0 0 0-.05-.19 1 1 0 0 0-.56-.59 4.39 4.39 0 0 0-2.68.15c1 .62 2.77 1.19 3.22.87a.22.22 0 0 0 .06-.24z"/></g><path fill="#ff8b7b" d="M315.05 192.32l-3.16-2.11c-1.09-.71-2.2-1.4-3.31-2.09-2.23-1.37-4.49-2.67-6.77-3.92s-4.59-2.39-6.92-3.41c-1.16-.53-2.33-1-3.5-1.45l-1.75-.62-.44-.15-.22-.08s-.07 0-.16-.07a8.74 8.74 0 0 0-2.51.15 27.67 27.67 0 0 0-3.4.85 75 75 0 0 0-7.23 2.72c-4.85 2.09-9.79 4.47-14.59 6.9l-3.39-5a107.76 107.76 0 0 1 13.83-10 69.7 69.7 0 0 1 7.83-4.11 38.08 38.08 0 0 1 4.49-1.62 18.06 18.06 0 0 1 5.68-.79 13.53 13.53 0 0 1 1.88.23l.47.11.28.07.55.14 2.2.57c1.44.43 2.89.86 4.27 1.39a77.09 77.09 0 0 1 8.13 3.44c2.63 1.26 5.18 2.66 7.67 4.14 1.23.76 2.46 1.53 3.67 2.33s2.37 1.6 3.67 2.57z"/><path fill="#6466f1" d="M327 183.83c-1.77-4.38-18.5-10.37-18.5-10.37l-5.41 14.12s5.85 3.87 10.7 6.77c9.21 5.55 16.67-1.9 13.21-10.52z"/><path fill="#ff8b7b" d="M262.7 186.93l-3.39 7.35-5.17-6.7s3.9-6.56 6.68-4zm-10.54 9.66l-2.62-5.88 4.6-3.13 5.17 6.7z"/></svg>