<svg xmlns="http://www.w3.org/2000/svg" viewBox="0 0 100 100" fill="#4497e2"><path d="M98.8 18.7c.7 0 1.2-.5 1.2-1.2V1.2c0-.7-.5-1.2-1.2-1.2H25.6c-.7 0-1.2.5-1.2 1.2v15H1.2c-.7 0-1.2.5-1.2 1.2V50c0 .7.5 1.2 1.2 1.2h11V65h-11c-.7 0-1.2.6-1.2 1.3v16.3c0 .7.5 1.2 1.2 1.2h23.2v15c0 .7.5 1.2 1.2 1.2h48.8c.7 0 1.2-.5 1.2-1.2v-15h23.2c.7 0 1.2-.5 1.2-1.2V66.3c0-.7-.5-1.2-1.2-1.2h-11V51.2h11c.7 0 1.2-.5 1.2-1.2V33.7c0-.7-.5-1.2-1.2-1.2H75.6V18.7h23.2zm-1.2-2.4H51.2V2.4h46.3v13.9zM73.2 48.8H26.8V35h46.4v13.8zM26.8 2.4h22v13.8h-22V2.4zM2.4 18.7h46.4v13.8H2.4V18.7zm0 16.3h22v13.8h-22V35zm12.2 16.2h22V65h-22V51.2zM2.4 67.5h46.4v13.8H2.4V67.5zm70.8 30.1H26.8V83.7h46.4v13.9zm24.4-16.3H51.2V67.5h46.4v13.8zM85.4 65H39V51.2h46.4V65zm12.2-16.2h-22V35h22v13.8zM73.2 32.5h-22V18.7h22v13.8z"/></svg>