<svg xmlns="http://www.w3.org/2000/svg" fill="#4497e2" viewBox="0 0 64 64"><path d="M34 60V3c0-.5-.5-1-1-1H3c-.5 0-1 .5-1 1v58c0 .5.5 1 1 1h58.7v-2H34zm-2 0H19V41h2v-2h-2v-3h-2v24H4V4h13v3h-5c-.5 0-1 .5-1 1v4c0 .5.5 1 1 1h12c.5 0 1-.5 1-1V8c0-.5-.5-1-1-1h-5V4h13v56zM23 9v2H13V9h10z"/><path d="M13 15h2v3h-2zm4 0h2v6h-2zm4 0h2v3h-2zm40 20h-3.3c.8-1.2 1.3-2.5 1.3-4 0-.5-.5-1-1-1H40c-.5 0-1 .5-1 1 0 1.5.5 2.8 1.3 4H37c-.5 0-1 .5-1 1v12c0 .5.5 1 1 1h24c.5 0 1-.5 1-1V36c0-.5-.5-1-1-1zm-4.1-3c-.2 1.2-.9 2.3-1.9 3H43c-1-.7-1.7-1.8-1.9-3h15.8zM60 47H38v-6h22v6zm0-8H38v-2h22v2z"/><path d="M46 43h7v2h-7zm3-41c-6.6 0-12 5.4-12 12 0 6.3 4.8 11.4 11 12v2h2v-2c6.2-.5 11-5.7 11-12 0-6.6-5.4-12-12-12zm0 22c-5.5 0-10-4.5-10-10S43.5 4 49 4c1.3 0 2.6.3 3.8.8l-3.4 3.4 1.4 1.4 3.8-3.8C57.3 7.6 59 10.6 59 14c0 5.5-4.5 10-10 10zm61.3 36V3c0-.5-.5-1-1-1h-30c-.5 0-1 .5-1 1v58c0 .5.5 1 1 1H138v-2h-27.7zm-2 0h-13V41h2v-2h-2v-3h-2v24h-13V4h13v3h-5c-.5 0-1 .5-1 1v4c0 .5.5 1 1 1h12c.5 0 1-.5 1-1V8c0-.5-.5-1-1-1h-5V4h13v56zm-9-51v2h-10V9h10z"/><path d="M89.3 15h2v3h-2zm4 0h2v6h-2zm4 0h2v3h-2zm40 20H134c.8-1.2 1.3-2.5 1.3-4 0-.5-.5-1-1-1h-18c-.5 0-1 .5-1 1 0 1.5.5 2.8 1.3 4h-3.3c-.5 0-1 .5-1 1v12c0 .5.5 1 1 1h24c.5 0 1-.5 1-1V36c0-.5-.4-1-1-1zm-4.1-3c-.2 1.2-.9 2.3-1.9 3h-11.9c-1-.7-1.7-1.8-1.9-3h15.7zm3.1 15h-22v-6h22v6zm0-8h-22v-2h22v2z"/><path d="M122.3 43h7v2h-7zm3-41c-6.6 0-12 5.4-12 12 0 6.3 4.8 11.4 11 12v2h2v-2c6.2-.5 11-5.7 11-12 0-6.6-5.4-12-12-12zm0 22c-5.5 0-10-4.5-10-10s4.5-10 10-10c1.3 0 2.6.3 3.8.8l-3.4 3.4 1.4 1.4 3.8-3.8c2.6 1.8 4.3 4.8 4.3 8.2.1 5.5-4.4 10-9.9 10z"/></svg>