<svg xmlns="http://www.w3.org/2000/svg" fill="#4497e2" viewBox="0 0 100 100"><path d="M90 91H10a1 1 0 0 1-1-1v-7a1 1 0 0 1 1-1h80a1 1 0 0 1 1 1v7a1 1 0 0 1-1 1zm-79-2h78v-5H11z"/><path d="M88 84H12a1 1 0 0 1-1-1V10a1 1 0 0 1 1-1h76a1 1 0 0 1 1 1v73a1 1 0 0 1-1 1zm-75-2h74V11H13z"/><path d="M47 79H17a1 1 0 0 1-1-1V15a1 1 0 0 1 1-1h30a1 1 0 0 1 1 1v29a1 1 0 0 1-2 0V16H18v61h28V50a1 1 0 0 1 2 0v28a1 1 0 0 1-1 1zm36 0H53a1 1 0 0 1-1-1V15a1 1 0 0 1 1-1h30a1 1 0 0 1 1 1v63a1 1 0 0 1-1 1zm-29-2h28V16H54z"/><path d="M20.5 28.5a1 1 0 0 1-.71-1.71l7.42-7.42a1 1 0 0 1 1.41 1.41L21.2 28.2a1 1 0 0 1-.7.3zm.67 8.17a1 1 0 0 1-.71-1.67l15.67-15.71a1 1 0 0 1 1.41 1.41L21.87 36.37a1 1 0 0 1-.7.3zm37-8.17a1 1 0 0 1-.71-1.71l7.42-7.42a1 1 0 0 1 1.41 1.41l-7.42 7.42a1 1 0 0 1-.7.3zm.66 8.17a1 1 0 0 1-.7-1.67l15.66-15.71a1 1 0 0 1 1.41 1.41L59.54 36.37a1 1 0 0 1-.71.3zM42.17 55.66a1 1 0 0 1-.71-.29l-2.83-2.83a1 1 0 0 1 0-1.41l8.49-8.49a1 1 0 0 1 1.41 0l2.83 2.83a1 1 0 0 1 0 1.41l-8.49 8.49a1 1 0 0 1-.7.29zm-1.42-3.83l1.42 1.42 7.07-7.07-1.42-1.42z"/></svg>