<svg xmlns="http://www.w3.org/2000/svg" viewBox="0 0 96 96"><style>.st0{fill:none;stroke:#0d8ee1;stroke-miterlimit:10}.st1{fill:#0d8ee1}</style><g id="Layer_1"><path d="M46.5 8L8 24.2v25.5L88 16V8z" class="st0"/><path d="M8 8v16.2L46.5 8zm0 80h30l50-21V41.5L8 75.1z" class="st0"/><path d="M88 88V67L38 88zM8 75.1l80-33.6V16L8 49.7z" class="st0"/><path d="M8 49.5L24.2 88h25.5L16 8H8z" class="st0"/><path d="M8 88h16.2L8 49.5zm80 0V58L67 8H41.5l33.6 80z" class="st0"/><path d="M88 8H67l21 50zM75.1 88L41.5 8H16l33.7 80z" class="st0"/><path d="M205.2 7h-82v82h82V7zm-80 2h6.4l3.9 9.3-10.3 4.3V9zm0 45.5l6.8 16.3-6.8 2.9V54.5zm78 32.5H192l-5-11.7 16.1-6.8V87zm-39.7-1.9l.8 1.9h-5.2.1l4.3-1.9zm-7.2-22.4l19.8-8.3 8.3 19.8-19.8 8.3-8.3-19.8zM197 43.4l-19.8 8.3-1.6-3.8-6.7-16 19.8-8.3 8.3 19.8zm-32.8-11.6l-17.8 7.5-8.3-19.8 19.8-8.3 8.3 19.8-2 .8zm-17 9.3l17-7.1 2.8-1.2 6.4 15.3 1.9 4.5-19.8 8.3-5.4-12.9-2.9-6.9zm-12.6 30.7l19.8-8.3 8.3 19.8L154 87h-13l-6.4-15.2zm30.8 12.6l19.8-8.3 4.6 11h-23.3l-1.1-2.7zM203.2 43v10l-3.6-8.5 3.6-1.5zm-4.4-.3l-8.3-19.8 12.7-5.3v23.3l-4.4 1.8zm-12.6 30.7l-8.3-19.8 19.8-8.3 4.3 10.3 1.1 2.6v8.1l-16.9 7.1zm1.6-51.6L168 30.1l-8.3-19.8 3.1-1.3h19.6l5.4 12.8zM157.1 9.2l-19.8 8.3-3.6-8.5H157l.1.2zm-11.8 32.6l2.6 6.2 5.7 13.7-19.8 8.3-8.2-19.4-.2-.4 19.9-8.4zM189.7 21l-5.1-12h18.5v6.4L189.7 21zm-53.5-.8l8.3 19.8-19.4 8.2V24.8l6.5-2.7 4.6-1.9zm-3.4 52.4l6.1 14.4h-13.7V75.8l7.6-3.2z" class="st1"/></g></svg>