<svg xmlns="http://www.w3.org/2000/svg" id="Layer_1" x="0" y="0" version="1.1" viewBox="0 0 100 125" xml:space="preserve"><style>.st0{fill:#0d8ee1}</style><path d="M90 91H10c-.6 0-1-.4-1-1v-7c0-.6.4-1 1-1h80c.6 0 1 .4 1 1v7c0 .6-.4 1-1 1zm-79-2h78v-5H11v5z"/><path d="M88 84H12c-.6 0-1-.4-1-1V10c0-.6.4-1 1-1h76c.6 0 1 .4 1 1v73c0 .6-.4 1-1 1zm-75-2h74V11H13v71z"/><path d="M47 79H17c-.6 0-1-.4-1-1V15c0-.6.4-1 1-1h30c.6 0 1 .4 1 1v29c0 .6-.4 1-1 1s-1-.4-1-1V16H18v61h28V50c0-.6.4-1 1-1s1 .4 1 1v28c0 .6-.4 1-1 1zm36 0H53c-.6 0-1-.4-1-1V15c0-.6.4-1 1-1h30c.6 0 1 .4 1 1v63c0 .6-.4 1-1 1zm-29-2h28V16H54v61z"/><path d="M20.5 28.5c-.6 0-1-.4-1-1 0-.3.1-.5.3-.7l7.4-7.4c.4-.4 1.1-.3 1.4.1.3.4.3.9 0 1.3l-7.4 7.4c-.2.2-.4.3-.7.3zm.7 8.2c-.6 0-1-.5-1-1 0-.2.1-.5.3-.6l15.7-15.7c.4-.4 1.1-.3 1.4.1.3.4.3.9 0 1.3L21.9 36.4c-.2.2-.5.3-.7.3zm37-8.2c-.6 0-1-.4-1-1 0-.3.1-.5.3-.7l7.4-7.4c.4-.4 1.1-.3 1.4.1.3.4.3.9 0 1.3l-7.4 7.4c-.2.2-.5.3-.7.3zm.6 8.2c-.6 0-1-.5-1-1 0-.2.1-.5.3-.6l15.7-15.7c.4-.4 1.1-.3 1.4.1.3.4.3.9 0 1.3L59.5 36.4c-.1.2-.4.3-.7.3z"/><path d="M197.5 91h-80c-.6 0-1-.4-1-1v-7c0-.6.4-1 1-1h80c.6 0 1 .4 1 1v7c0 .6-.4 1-1 1zm-79-2h78v-5h-78v5z" class="st0"/><path d="M195.5 84h-76c-.6 0-1-.4-1-1V10c0-.6.4-1 1-1h76c.6 0 1 .4 1 1v73c0 .6-.4 1-1 1zm-75-2h74V11h-74v71z" class="st0"/><path d="M154.5 14h-30c-.6 0-1 .4-1 1v63c0 .6.4 1 1 1h30c.6 0 1-.4 1-1V15c0-.6-.4-1-1-1zm-1 63h-28V16h28v61zm37 2h-30c-.6 0-1-.4-1-1V15c0-.6.4-1 1-1h30c.6 0 1 .4 1 1v63c0 .6-.4 1-1 1zm-29-2h28V16h-28v61z" class="st0"/><path d="M128 28.5c-.6 0-1-.4-1-1 0-.3.1-.5.3-.7l7.4-7.4c.4-.4 1.1-.3 1.4.1.3.4.3.9 0 1.3l-7.4 7.4c-.1.2-.4.3-.7.3zm.7 8.2c-.6 0-1-.5-1-1 0-.2.1-.5.3-.6l15.7-15.7c.4-.4 1.1-.3 1.4.1.3.4.3.9 0 1.3l-15.7 15.7c-.2.1-.4.2-.7.2zm37-8.2c-.6 0-1-.4-1-1 0-.3.1-.5.3-.7l7.4-7.4c.4-.4 1.1-.3 1.4.1.3.4.3.9 0 1.3l-7.4 7.4c-.2.2-.4.3-.7.3zm.7 8.2c-.6 0-1-.5-1-1 0-.2.1-.5.3-.6l15.7-15.7c.4-.4 1.1-.3 1.4.1.3.4.3.9 0 1.3l-15.7 15.7c-.2.1-.5.2-.7.2z" class="st0"/></svg>