<svg xmlns="http://www.w3.org/2000/svg" fill="#4497e2" viewBox="0 0 64 64"><path d="M15 31H0v31h4v2h2v-2h25v2h2v-2h26v2h2v-2h3V31H15zm0 2v5H2v-5h13zM2 60V40h13v20H2zm15 0V33h30v27H17zm32 0V40h13v20H49zm13-27v5H49v-5h13z"/><path d="M11 44h2v5h-2zm40 0h2v5h-2zM20 57h24V40H20v17zm2-15h20v13H22V42zm-2-7h24v2H20zm2-35H0v17h22V0zM2 2h8v13H2V2zm18 13h-8V2h8v13zm22 2h22V0H42v17zm20-2h-8V2h8v13zM44 2h8v13h-8V2z"/><path d="M25 0v15.7L22.5 19H18v2h28v-2h-4.5L39 15.7V0H25zm2 2h10v13H27V2zm-2 17l1.5-2h11l1.5 2H25zM6 5h2v5H6zm10 0h2v5h-2zm31 0h2v5h-2zm10 0h2v5h-2zM27 44h11v2H27z"/></svg>