<svg xmlns="http://www.w3.org/2000/svg" width="245" height="245" fill="none" viewBox="0 0 245 245"><linearGradient id="a" x1="122.523" x2="122.523" y1="100.167" y2="244.752" gradientUnits="userSpaceOnUse"><stop offset="0" stop-color="#f7901f"/><stop offset="1" stop-color="#f7901f"/></linearGradient><path fill="url(#a)" d="M221.494 101.381c11.78-.566 22.207 8.572 23.224 20.362 4.406 57.037-47.793 120.931-121.352 122.974C61.377 246.247.068 196.619.068 121.58c0-11.826 9.773-21.413 21.566-21.413s21.353 9.587 21.353 21.413c0 49.359 39.688 81.303 79.329 80.325 48.799-1.356 80.523-43.61 78.873-78.11-.566-11.812 8.526-21.847 20.305-22.414z"/><g fill="#f7901f"><path d="M168.15 123.24c0-12.107 9.876-21.922 22.058-21.922h32.146c12.183 0 22.364 9.815 22.364 21.922 0 12.108-10.181 21.923-22.364 21.923h-32.146c-12.182 0-22.058-9.815-22.058-21.923zm-67.45.032c0-12.125 9.813-21.954 21.904-21.954 12.092 0 21.905 9.829 21.905 21.954s-9.813 21.955-21.905 21.955c-12.091 0-21.904-9.83-21.904-21.955z"/><path fill-rule="evenodd" d="M143.902 20.696c.49 11.816-8.666 21.792-20.449 22.283-50.866 2.118-81.918 42.097-80.407 80.057.47 11.816-8.51 21.778-20.293 22.25-11.784.472-22.147-9.065-22.617-20.881C-2.327 62.545 49.18 1.391 121.68.19c11.783-.49 21.732 8.69 22.221 20.506z" clip-rule="evenodd"/></g></svg>